<svg id="logo" xmlns="http://www.w3.org/2000/svg" viewBox="0 0 278.547 318.368"><path d="M300.011,299.808q-54.336-31.149-108.518-62.567c-7.011-4.048-14.034-8.077-21.295-12.255a10.423,10.423,0,0,0-.443,1.829q-.03,75.45.086,150.9A6.343,6.343,0,0,0,172.6,382.2c8.1,4.929,16.368,9.573,24.607,14.267a26.886,26.886,0,0,0,3.616,1.342V347.385a16.634,16.634,0,0,1,1.846.716c22.787,13.1,45.6,26.164,68.281,39.44a6.893,6.893,0,0,1,2.649,5.083c.209,14.655.086,29.313.17,43.97.009,1.51.228,3.825,1.177,4.4,9.48,5.738,19.133,11.189,29.583,17.208v-5.293c0-48.469-.057-96.938.106-145.406C304.652,303.557,303.262,301.671,300.011,299.808Zm-26.29,53.572c-17.146-9.868-33.419-19.232-49.689-28.6-6.779-3.9-13.605-7.729-20.285-11.794-1.356-.825-3.029-2.548-3.064-3.9-.259-9.974-.14-19.958-.14-30.516,1.635.732,2.838,1.149,3.921,1.773,21.923,12.622,43.806,25.316,65.781,37.848,2.68,1.528,3.62,3.228,3.552,6.282C273.589,333.788,273.721,343.1,273.721,353.38Z" transform="translate(-169.737 -139.834)"/><path d="M448.194,230.778v-6.162c-9.232,5.318-17.463,10.28-25.919,14.824-3.491,1.876-4.911,4-4.827,8.1.286,13.993-.021,28,.2,41.992.054,3.348-1.136,5-3.9,6.585-21.83,12.456-43.571,25.067-65.349,37.612-1.245.716-2.581,1.274-4.558,2.24v-51.1c-9.085,5.227-17.314,10.177-25.765,14.717-3.339,1.794-4.634,3.779-4.621,7.711.159,48.328.1,96.656.1,144.985v5.692c9.33-5.342,17.738-10.318,26.318-14.981,3-1.632,4.109-3.53,4.078-7-.178-19.83-.024-39.662-.15-59.493-.02-3.156.718-5.071,3.68-6.751,22.148-12.567,44.168-25.361,66.241-38.06,1.062-.611,2.249-1,4.035-1.785v68.171C426.78,392.888,435,387.894,443.48,383.4c3.583-1.9,4.816-4.106,4.8-8.141Q448.074,303.021,448.194,230.778Z" transform="translate(-169.737 -139.834)"/><path d="M443.357,216.726c-1.917-1.179-3.168-1.991-4.459-2.736q-57.7-33.329-115.407-66.637c-4.753-2.744-9.569-7.555-14.326-7.519-4.972.038-9.967,4.673-14.849,7.476-15.1,8.671-30.151,17.427-45.824,26.5,9.433,5.475,18.388,10.532,27.177,15.861,2.671,1.62,4.678,1.44,7.248-.117,7.542-4.567,15.15-9.043,22.934-13.174a7.676,7.676,0,0,1,6.187,0c7.074,3.691,13.906,7.847,20.82,11.845q24.353,14.085,48.817,28.251a8.083,8.083,0,0,1-1.273,1.307c-23.027,13.361-46.044,26.739-69.157,39.95a5.814,5.814,0,0,1-4.807-.241c-8.161-4.49-16.123-9.341-24.3-13.8a6.417,6.417,0,0,0-5.261-.214c-9.326,5.124-18.479,10.563-28.352,16.286,19.436,11.227,38.187,21.967,56.814,32.917,2.85,1.676,4.881,1.569,7.668-.054q62.964-36.68,126.042-73.167C440.39,218.685,441.669,217.8,443.357,216.726Z" transform="translate(-169.737 -139.834)"/></svg>